HIERARCHY
ROOT Hips
{
 OFFSET 0.000000 0.000000 0.000000
 CHANNELS 6 Xposition Yposition Zposition Yrotation Xrotation Zrotation
 JOINT Chest
 {
  OFFSET 0.000000 9.585900 0.002600
  CHANNELS 3 Yrotation Xrotation Zrotation
  JOINT Chest2
  {
   OFFSET 0.000000 9.601200 -0.005300
   CHANNELS 3 Yrotation Xrotation Zrotation
   JOINT Chest3
   {
    OFFSET 0.000000 9.561800 0.000000
    CHANNELS 3 Yrotation Xrotation Zrotation
    JOINT Chest4
    {
     OFFSET 0.000000 9.552100 0.000000
     CHANNELS 3 Yrotation Xrotation Zrotation
     JOINT Neck
     {
      OFFSET 0.000000 14.453000 0.000000
      CHANNELS 3 Yrotation Xrotation Zrotation
      JOINT Head
      {
       OFFSET 0.000000 8.936500 -0.011300
       CHANNELS 3 Yrotation Xrotation Zrotation
       End Site
       {
        OFFSET 0.000000 17.073600 -0.006000
       }
      }
     }
     JOINT RightCollar
     {
      OFFSET -2.921100 9.558500 0.000000
      CHANNELS 3 Yrotation Xrotation Zrotation
      JOINT RightShoulder
      {
       OFFSET -13.519700 0.000000 0.000000
       CHANNELS 3 Yrotation Xrotation Zrotation
       JOINT RightElbow
       {
        OFFSET 0.000000 -29.696600 0.000000
        CHANNELS 3 Yrotation Xrotation Zrotation
        JOINT RightWrist
        {
         OFFSET 0.000000 -24.004700 0.000000
         CHANNELS 3 Yrotation Xrotation Zrotation
         End Site
         {
          OFFSET 0.000000 -17.728500 0.000000
         }
        }
       }
      }
     }
     JOINT LeftCollar
     {
      OFFSET 2.921100 9.558500 0.000000
      CHANNELS 3 Yrotation Xrotation Zrotation
      JOINT LeftShoulder
      {
       OFFSET 13.519700 0.000000 0.000000
       CHANNELS 3 Yrotation Xrotation Zrotation
       JOINT LeftElbow
       {
        OFFSET 0.000000 -29.696600 0.000000
        CHANNELS 3 Yrotation Xrotation Zrotation
        JOINT LeftWrist
        {
         OFFSET 0.000000 -24.004700 0.000000
         CHANNELS 3 Yrotation Xrotation Zrotation
         End Site
         {
          OFFSET 0.000000 -17.728500 0.000000
         }
        }
       }
      }
     }
    }
   }
  }
 }
 JOINT RightHip
 {
  OFFSET -7.771700 -0.012900 -0.001300
  CHANNELS 3 Yrotation Xrotation Zrotation
  JOINT RightKnee
  {
   OFFSET 0.000000 -40.869800 0.001200
   CHANNELS 3 Yrotation Xrotation Zrotation
   JOINT RightAnkle
   {
    OFFSET 0.000000 -39.717900 0.002100
    CHANNELS 3 Yrotation Xrotation Zrotation
    JOINT RightToe
    {
     OFFSET 0.000000 -4.965400 11.033500
     CHANNELS 3 Yrotation Xrotation Zrotation
     End Site
     {
      OFFSET 0.000000 -1.423100 5.872300
     }
    }
   }
  }
 }
 JOINT LeftHip
 {
  OFFSET 7.771700 -0.012900 -0.001300
  CHANNELS 3 Yrotation Xrotation Zrotation
  JOINT LeftKnee
  {
   OFFSET 0.000000 -40.869800 0.001200
   CHANNELS 3 Yrotation Xrotation Zrotation
   JOINT LeftAnkle
   {
    OFFSET 0.000000 -39.717900 0.002100
    CHANNELS 3 Yrotation Xrotation Zrotation
    JOINT LeftToe
    {
     OFFSET 0.000000 -4.965400 11.033500
     CHANNELS 3 Yrotation Xrotation Zrotation
     End Site
     {
      OFFSET 0.000000 -1.423100 5.872300
     }
    }
   }
  }
 }
}
MOTION
Frames: 16
Frame Time: 0.008333
0.000000 85.388000 0.000000 0.000000 -5.767877 0.000000 0.000000 11.653817 0.000000 0.000000 -5.885947 0.000000 0.000000 -0.000000 0.000000 0.000000 -0.000000 0.000000 0.000000 12.528835 0.000000 0.000000 0.711642 0.000000 0.000000 -0.000000 0.000000 0.000000 0.000000 -90.000000 0.000000 -2.309062 0.000000 0.000000 2.309062 0.000000 0.000000 -0.000000 0.000000 0.000000 -0.000000 90.000000 0.000000 -2.309062 0.000000 0.000000 2.309062 0.000000 0.000000 8.520406 0.000000 0.000000 1.905762 0.000000 -0.000000 -4.658285 0.000000 0.000000 -0.000000 0.000000 0.000000 8.520406 0.000000 0.000000 1.905762 0.000000 -0.000000 -4.658285 0.000000 0.000000 -0.000000 0.000000
-213.108447 57.803147 -71.047091 159.148072 -5.407847 0.099368 3.201458 5.484247 1.484797 0.127791 0.190904 0.040391 0.172067 0.384586 0.031209 2.816940 5.272046 0.801136 2.392692 18.148386 -1.138479 4.738146 -1.964823 -2.791448 3.121097 8.330245 1.161532 -6.433837 -16.687014 -12.833841 -169.147162 -71.787351 -169.341795 -4.351692 2.290701 -41.151670 -4.198758 7.561518 -1.215203 13.258011 -6.145928 1.757640 98.437334 -78.608705 -127.042556 -0.533176 6.280671 14.107430 -11.634087 -66.261351 7.577498 -36.526189 71.650461 -38.303561 -5.160358 -7.213729 0.558213 -0.357232 0.786689 -0.178301 0.746081 -68.787129 16.538263 42.279516 66.093627 35.447845 -18.162527 -10.347138 3.829915 -0.061223 -0.902325 -0.048141
-213.112177 57.803350 -71.038773 159.146849 -5.386907 0.104545 3.193738 5.472155 1.470472 0.102623 0.215775 0.018285 0.197773 0.359778 0.052801 2.809705 5.281134 0.789906 2.392607 18.158032 -1.108225 4.730204 -1.943246 -2.730563 3.048340 8.306190 1.111257 -6.361837 -16.115118 -12.597894 -170.423274 -72.053767 -168.203090 -4.294877 2.684065 -41.061578 -4.185472 7.547740 -1.202076 13.271178 -6.127861 1.788786 98.449978 -78.610430 -127.056077 -0.528704 6.271720 14.100944 -11.662364 -66.281673 7.598130 -36.492307 71.644974 -38.276527 -5.146610 -7.210748 0.557927 -0.361804 0.790978 -0.183287 0.752399 -68.807590 16.528931 42.268006 66.076775 35.434790 -18.181795 -10.308933 3.829988 -0.058823 -0.886766 -0.046221
-213.114084 57.803616 -71.027966 159.132040 -5.362698 0.100315 3.202934 5.455566 1.466770 0.102750 0.215483 0.018282 0.198023 0.360289 0.052371 2.808017 5.290913 0.775089 2.380444 18.192580 -1.064956 4.742769 -1.969377 -2.722522 3.015754 8.286650 1.098512 -6.300101 -15.552598 -12.398102 -171.582751 -72.339020 -167.164329 -4.232447 3.077463 -40.885167 -4.192363 7.538268 -1.200290 13.299607 -6.112650 1.824752 98.462904 -78.605971 -127.067962 -0.527932 6.279978 14.104366 -11.708890 -66.304050 7.651890 -36.445803 71.632968 -38.235219 -5.132431 -7.188982 0.549732 -0.363913 0.782290 -0.178060 0.743409 -68.831084 16.550377 42.258050 66.060418 35.420069 -18.162837 -10.274764 3.825291 -0.070440 -0.885750 -0.045082
-213.115625 57.803676 -71.012743 159.089971 -5.320275 0.093312 3.227045 5.431171 1.452887 0.115759 0.204463 0.031675 0.192476 0.367713 0.044469 2.807238 5.300990 0.746859 2.391466 18.193661 -1.012479 4.745857 -1.970610 -2.697499 2.937345 8.273816 1.052310 -6.179176 -15.003848 -12.158801 -172.663450 -72.645510 -166.189284 -4.149260 3.476110 -40.589160 -4.193041 7.527493 -1.178371 13.331112 -6.096882 1.852160 98.474385 -78.604501 -127.076939 -0.520849 6.295259 14.118513 -11.731356 -66.343022 7.712076 -36.427960 71.596917 -38.194879 -5.128637 -7.155864 0.515173 -0.338729 0.776522 -0.168856 0.754417 -68.873497 16.584058 42.238398 66.049523 35.399989 -18.161636 -10.248917 3.818711 -0.059174 -0.878683 -0.040489
-213.114604 57.804389 -71.003054 159.051202 -5.319033 0.090298 3.259781 5.433909 1.452273 0.091124 0.211895 0.010388 0.211332 0.364781 0.058046 2.818990 5.294347 0.754457 2.373059 18.222816 -0.997134 4.724384 -1.905470 -2.578940 2.846729 8.300062 0.970284 -6.056661 -14.478980 -11.921072 -173.740489 -72.972674 -165.200371 -4.037906 3.880891 -40.156034 -4.199488 7.530423 -1.190608 13.348485 -6.080843 1.873084 98.430362 -78.604577 -127.022557 -0.518299 6.290776 14.118280 -11.731569 -66.343482 7.746434 -36.411077 71.580673 -38.169041 -5.125027 -7.138473 0.499801 -0.329260 0.773417 -0.170361 0.770430 -68.872185 16.608899 42.223332 66.043370 35.382552 -18.136213 -10.237668 3.813413 -0.075651 -0.867900 -0.040505
-213.113480 57.805187 -70.994675 159.015187 -5.328861 0.095952 3.277348 5.447901 1.434787 0.089686 0.210829 0.011671 0.213422 0.366209 0.055326 2.823815 5.295573 0.741496 2.381175 18.233562 -0.966490 4.713590 -1.857008 -2.507831 2.789652 8.336235 0.925782 -5.949743 -13.979857 -11.698698 -174.868471 -73.306519 -164.139006 -3.896119 4.301068 -39.596674 -4.192289 7.533971 -1.177397 13.360890 -6.082615 1.885166 98.383308 -78.604684 -126.967071 -0.521136 6.284423 14.113024 -11.734208 -66.333046 7.773732 -36.374974 71.567403 -38.130986 -5.130098 -7.126186 0.485668 -0.322082 0.772477 -0.170552 0.798133 -68.858013 16.621151 42.211998 66.042490 35.364911 -18.130385 -10.236170 3.810207 -0.081777 -0.856754 -0.039762
-213.110997 57.805750 -70.984404 158.990966 -5.333539 0.094817 3.282148 5.454101 1.423283 0.089881 0.211411 0.014123 0.213735 0.366253 0.051629 2.808482 5.302256 0.710931 2.425562 18.228717 -0.922539 4.702365 -1.815769 -2.466380 2.756525 8.382743 0.897853 -5.847728 -13.503880 -11.478463 -176.034979 -73.632356 -163.006888 -3.724049 4.742386 -38.944503 -4.157752 7.537391 -1.150263 13.381147 -6.064573 1.894288 98.433464 -78.602230 -127.020211 -0.474462 6.322569 14.158818 -11.765059 -66.325774 7.820536 -36.339735 71.554663 -38.095459 -5.129110 -7.113690 0.470765 -0.311360 0.770600 -0.168896 0.803474 -68.853044 16.643186 42.192425 66.041677 35.344357 -18.117901 -10.232187 3.807202 -0.089927 -0.851553 -0.041824
-213.108019 57.805987 -70.972330 158.979594 -5.330825 0.090714 3.272343 5.455073 1.417698 0.102311 0.208555 0.017482 0.201903 0.369445 0.047347 2.809781 5.299683 0.699974 2.433850 18.247513 -0.900781 4.706910 -1.796474 -2.452247 2.707491 8.444828 0.850514 -5.753955 -13.043678 -11.262067 -177.164414 -73.946622 -161.868115 -3.523904 5.196176 -38.235454 -4.132513 7.550911 -1.155347 13.414640 -6.021757 1.887462 98.382392 -78.607869 -126.954586 -0.483685 6.311724 14.148251 -11.818292 -66.327826 7.876794 -36.303154 71.547060 -38.060070 -5.126170 -7.098482 0.456779 -0.311509 0.764179 -0.168274 0.789085 -68.855832 16.670579 42.162719 66.036449 35.312178 -18.086482 -10.224332 3.802572 -0.079040 -0.837366 -0.040019
-213.107632 57.806224 -70.963766 158.967724 -5.343018 0.112402 3.256613 5.468747 1.380214 0.120173 0.208248 0.026683 0.193723 0.368542 0.040894 2.806437 5.303241 0.693708 2.418609 18.270505 -0.904464 4.739832 -1.805975 -2.439424 2.662837 8.510436 0.805451 -5.672419 -12.599488 -11.052467 -178.162967 -74.254633 -160.809016 -3.304988 5.640408 -37.506074 -4.105924 7.552529 -1.146237 13.439268 -5.994513 1.872690 98.479834 -78.619456 -127.074408 -0.476213 6.319184 14.160270 -11.822210 -66.324016 7.871893 -36.259038 71.552491 -38.031121 -5.107218 -7.088430 0.465262 -0.319349 0.756738 -0.177214 0.838715 -68.841475 16.630251 42.149009 66.034361 35.293952 -18.085488 -10.225487 3.800690 -0.098919 -0.827959 -0.043167
-213.105585 57.806122 -70.953453 158.972972 -5.349101 0.122329 3.230894 5.477385 1.359825 0.112901 0.208922 0.024205 0.187525 0.369624 0.036248 2.824246 5.304648 0.693148 2.423042 18.275346 -0.909581 4.747455 -1.788808 -2.449356 2.617690 8.575767 0.761484 -5.604128 -12.174542 -10.856605 -178.966923 -74.562165 -159.887141 -3.085608 6.045875 -36.796956 -4.074378 7.560839 -1.144007 13.441487 -5.993543 1.871991 98.384118 -78.623198 -126.955415 -0.488287 6.306558 14.141049 -11.821305 -66.322017 7.859392 -36.242773 71.550415 -38.012430 -5.100881 -7.085862 0.464484 -0.321212 0.759007 -0.185973 0.844907 -68.831845 16.617711 42.120548 66.027574 35.260620 -18.081463 -10.237067 3.799508 -0.111901 -0.810007 -0.046784
-213.103710 57.805852 -70.943932 158.969244 -5.358656 0.137935 3.218776 5.488908 1.336105 0.121076 0.208635 0.028734 0.182723 0.370652 0.032320 2.824792 5.309845 0.684986 2.425660 18.276303 -0.923551 4.755098 -1.781003 -2.481746 2.569421 8.636937 0.720588 -5.546809 -11.768290 -10.680485 -179.535714 -74.873453 -159.139626 -2.886525 6.386996 -36.141639 -4.029090 7.579946 -1.148273 13.425074 -6.006753 1.877442 98.161526 -78.605363 -126.666377 -0.517848 6.288076 14.104302 -11.843131 -66.323615 7.869266 -36.224222 71.555829 -37.998681 -5.101686 -7.067636 0.451609 -0.315604 0.743600 -0.184589 0.879729 -68.820785 16.584967 42.094445 66.027743 35.230611 -18.066090 -10.249845 3.809902 -0.127209 -0.800746 -0.057821
-213.099418 57.805014 -70.929716 158.938115 -5.345948 0.134297 3.245098 5.476130 1.338619 0.106674 0.209348 0.019332 0.197454 0.370478 0.041177 2.825979 5.312794 0.680636 2.423411 18.277767 -0.951940 4.763505 -1.784474 -2.521278 2.514649 8.697912 0.675036 -5.497350 -11.381712 -10.523479 -179.842273 -75.194629 -158.601001 -2.722521 6.647809 -35.559852 -4.018878 7.580816 -1.143525 13.503244 -5.947869 1.833539 98.241585 -78.616489 -126.772356 -0.497251 6.291039 14.129012 -11.860271 -66.337726 7.911456 -36.197029 71.539814 -37.947533 -5.115629 -7.043817 0.416721 -0.290576 0.735930 -0.175217 0.886667 -68.833025 16.611873 42.077430 66.026005 35.208312 -18.040812 -10.273470 3.826730 -0.142009 -0.785465 -0.073471
-213.094257 57.804526 -70.921166 158.914733 -5.365451 0.138825 3.263743 5.495466 1.334874 0.103753 0.208061 0.016474 0.200743 0.372440 0.043554 2.827877 5.316050 0.676329 2.422389 18.276377 -0.986326 4.772087 -1.793641 -2.571771 2.457037 8.758828 0.628866 -5.451419 -11.017708 -10.382628 -179.875300 -75.531332 -158.297049 -2.601580 6.823576 -35.057069 -3.989212 7.601247 -1.144858 13.553001 -5.921952 1.800572 98.302731 -78.622082 -126.859221 -0.487866 6.286093 14.128253 -11.840596 -66.320980 7.909339 -36.170955 71.537231 -37.910882 -5.120710 -7.037019 0.407847 -0.281395 0.735043 -0.175743 0.902774 -68.810682 16.625842 42.049900 66.031880 35.174513 -18.026784 -10.296330 3.836425 -0.135736 -0.772451 -0.079257
-213.088365 57.803950 -70.913184 158.898256 -5.388180 0.141362 3.274730 5.515920 1.329713 0.101097 0.208577 0.017364 0.195964 0.372962 0.037470 2.841184 5.333870 0.661267 2.428614 18.259014 -0.982355 4.776794 -1.799621 -2.599594 2.398632 8.806903 0.598292 -5.404162 -10.676262 -10.259540 -179.638296 -75.884660 -158.234678 -2.529212 6.921846 -34.630938 -3.915643 7.657387 -1.143632 13.515522 -5.977526 1.801011 98.232596 -78.608669 -126.766895 -0.513191 6.278391 14.086013 -11.816602 -66.299748 7.898596 -36.151112 71.535255 -37.874532 -5.131209 -7.036721 0.396981 -0.283841 0.738049 -0.165672 0.897436 -68.783217 16.652338 42.028596 66.033041 35.147776 -18.026623 -10.318621 3.837696 -0.124977 -0.750541 -0.082868
-213.084050 57.803399 -70.907284 158.883279 -5.417667 0.158521 3.272058 5.541387 1.307886 0.111744 0.213095 0.021675 0.196451 0.374080 0.037166 2.845751 5.344074 0.653977 2.429271 18.248259 -0.995551 4.782621 -1.806702 -2.630532 2.337468 8.864280 0.548169 -5.354114 -10.355900 -10.154496 -179.146607 -76.251952 -158.408590 -2.501603 6.957654 -34.273965 -3.876628 7.686161 -1.147154 13.581264 -5.961469 1.764454 98.297142 -78.606841 -126.882287 -0.507177 6.269302 14.067107 -11.777769 -66.278084 7.865245 -36.138236 71.539861 -37.855802 -5.134898 -7.037031 0.390893 -0.281997 0.738880 -0.170367 0.921535 -68.750102 16.638729 42.010215 66.038620 35.123296 -18.007681 -10.329017 3.840555 -0.158075 -0.760778 -0.089321
